<svg width="74.000000" height="74.000000" viewBox="0 0 74 74" fill="none" xmlns="http://www.w3.org/2000/svg" xmlns:xlink="http://www.w3.org/1999/xlink">
	<desc>
			Created with Pixso.
	</desc>
	<defs>
		<clipPath id="clip13_2696">
			<rect id="Property 1=business" rx="0.000000" width="73.000000" height="73.000000" transform="translate(0.500000 0.500000)" fill="white" fill-opacity="0"/>
		</clipPath>
	</defs>
	<rect id="Property 1=business" rx="0.000000" width="73.000000" height="73.000000" transform="translate(0.500000 0.500000)" fill="#FFFFFF" fill-opacity="0"/>
	<g clip-path="url(#clip13_2696)">
		<path id="Vector" d="M58.58 12.33L55.19 12.33C54.47 8.85 52.58 5.72 49.83 3.48C47.07 1.23 43.63 0 40.08 0L33.91 0C30.36 0 26.92 1.23 24.16 3.48C21.41 5.72 19.52 8.85 18.8 12.33L15.41 12.33C11.32 12.33 7.41 13.96 4.52 16.85C1.63 19.74 0 23.66 0 27.75L0 58.58C0 62.66 1.63 66.58 4.52 69.47C7.41 72.36 11.32 73.99 15.41 74L58.58 74C62.67 73.99 66.58 72.36 69.47 69.47C72.36 66.58 73.99 62.66 74 58.58L74 27.75C73.99 23.66 72.36 19.74 69.47 16.85C66.58 13.96 62.67 12.33 58.58 12.33ZM33.91 6.16L40.08 6.16C41.98 6.17 43.84 6.77 45.4 7.87C46.95 8.97 48.13 10.53 48.76 12.33L25.23 12.33C25.86 10.53 27.04 8.97 28.59 7.87C30.15 6.77 32.01 6.17 33.91 6.16ZM15.41 18.5L58.58 18.5C61.03 18.5 63.38 19.47 65.12 21.2C66.85 22.94 67.83 25.29 67.83 27.75L67.83 37L6.16 37L6.16 27.75C6.16 25.29 7.14 22.94 8.87 21.2C10.61 19.47 12.96 18.5 15.41 18.5ZM58.58 67.83L15.41 67.83C12.96 67.83 10.61 66.85 8.87 65.12C7.14 63.38 6.16 61.03 6.16 58.58L6.16 43.16L33.91 43.16L33.91 46.25C33.91 47.06 34.24 47.85 34.81 48.42C35.39 49 36.18 49.33 37 49.33C37.81 49.33 38.6 49 39.18 48.42C39.75 47.85 40.08 47.06 40.08 46.25L40.08 43.16L67.83 43.16L67.83 58.58C67.83 61.03 66.85 63.38 65.12 65.12C63.38 66.85 61.03 67.83 58.58 67.83Z" fill="#FFFFFF" fill-opacity="1.000000" fill-rule="nonzero"/>
	</g>
</svg>
