<svg width="74.000000" height="74.000000" viewBox="0 0 74 74" fill="none" xmlns="http://www.w3.org/2000/svg" xmlns:xlink="http://www.w3.org/1999/xlink">
	<desc>
			Created with Pixso.
	</desc>
	<defs>
		<clipPath id="clip13_2736">
			<rect id="Property 1=lesson 1" rx="0.000000" width="73.000000" height="73.000000" transform="translate(0.500000 0.500000)" fill="white" fill-opacity="0"/>
		</clipPath>
	</defs>
	<rect id="Property 1=lesson 1" rx="0.000000" width="73.000000" height="73.000000" transform="translate(0.500000 0.500000)" fill="#FFFFFF" fill-opacity="0"/>
	<g clip-path="url(#clip13_2736)">
		<path id="Vector" d="M55.02 43.83L41.48 38C38.59 36.75 35.27 36.75 32.39 38L18.93 43.83C16.7 44.8 15.31 46.91 15.31 49.33C15.31 51.76 16.69 53.87 18.91 54.84L24.66 57.35L24.66 65.34C24.66 68.35 26.42 71.1 29.14 72.35C31.52 73.44 34.16 74 37 74C39.83 74 42.47 73.44 44.85 72.35C47.57 71.1 49.33 68.34 49.33 65.34L49.33 57.33L52.41 55.99L52.41 64.75C52.41 66.45 53.79 67.83 55.5 67.83C57.2 67.83 58.58 66.45 58.58 64.75C58.58 64.75 58.58 49.5 58.58 49.33C58.58 46.94 57.22 44.77 55.02 43.83L55.02 43.83ZM34.84 43.66C36.17 43.08 37.7 43.08 39.04 43.66L52.45 49.14C52.45 49.18 52.43 49.21 52.42 49.26L39.06 55.06C37.71 55.65 36.17 55.65 34.83 55.06L21.37 49.49L34.83 43.66L34.84 43.66ZM43.16 65.34C43.16 65.95 42.82 66.5 42.27 66.75C39.16 68.18 34.83 68.18 31.72 66.75C31.17 66.5 30.83 65.95 30.83 65.34L30.83 60.04L32.36 60.71C33.82 61.34 35.39 61.66 36.95 61.66C38.51 61.66 40.07 61.35 41.52 60.72L43.16 60L43.16 65.34ZM21.58 13.87C21.58 16.42 19.51 18.5 16.95 18.5C14.4 18.5 12.33 16.42 12.33 13.87C12.33 11.32 14.4 9.25 16.95 9.25C19.51 9.25 21.58 11.32 21.58 13.87ZM33.91 13.87C33.91 16.42 31.84 18.5 29.29 18.5C26.73 18.5 24.66 16.42 24.66 13.87C24.66 11.32 26.73 9.25 29.29 9.25C31.84 9.25 33.91 11.32 33.91 13.87ZM58.58 0L15.41 0C6.91 0 0 6.91 0 15.41L0 52.41C0 60.91 6.91 67.83 15.41 67.83C17.11 67.83 18.5 66.45 18.5 64.75C18.5 63.04 17.11 61.66 15.41 61.66C10.31 61.66 6.16 57.51 6.16 52.41L6.16 27.75L67.83 27.75L67.83 52.41C67.83 54.66 67.01 56.84 65.52 58.53C64.39 59.8 64.51 61.75 65.79 62.88C67.06 64 69.02 63.89 70.14 62.6C72.63 59.79 74 56.17 74 52.41L74 15.41C74 6.91 67.08 0 58.58 0ZM6.16 21.58L6.16 15.41C6.16 10.31 10.31 6.16 15.41 6.16L58.58 6.16C63.68 6.16 67.83 10.31 67.83 15.41L67.83 21.58L6.16 21.58Z" fill="#FFFFFF" fill-opacity="1.000000" fill-rule="nonzero"/>
	</g>
</svg>
