<svg width="74.000000" height="74.000000" viewBox="0 0 74 74" fill="none" xmlns="http://www.w3.org/2000/svg" xmlns:xlink="http://www.w3.org/1999/xlink">
	<desc>
			Created with Pixso.
	</desc>
	<defs>
		<clipPath id="clip13_2728">
			<rect id="Property 1=blog-text 1" rx="0.000000" width="73.000000" height="73.000000" transform="translate(0.500000 0.500000)" fill="white" fill-opacity="0"/>
		</clipPath>
	</defs>
	<rect id="Property 1=blog-text 1" rx="0.000000" width="73.000000" height="73.000000" transform="translate(0.500000 0.500000)" fill="#FFFFFF" fill-opacity="0"/>
	<g clip-path="url(#clip13_2728)">
		<path id="Vector" d="M58.58 6.16L15.41 6.16C6.9 6.16 0 13.07 0 21.58L0 52.41C0 60.92 6.9 67.83 15.41 67.83L58.58 67.83C67.09 67.83 74 60.92 74 52.41L74 21.58C74 13.07 67.09 6.16 58.58 6.16ZM15.41 12.33L58.58 12.33C63.67 12.33 67.83 16.49 67.83 21.58L6.16 21.58C6.16 16.49 10.32 12.33 15.41 12.33ZM58.58 61.66L15.41 61.66C10.32 61.66 6.16 57.5 6.16 52.41L6.16 27.75L67.83 27.75L67.83 52.41C67.83 57.5 63.67 61.66 58.58 61.66ZM30.83 37C30.83 38.69 29.44 40.08 27.75 40.08L24.66 40.08L24.66 52.41C24.66 54.11 23.27 55.5 21.58 55.5C19.88 55.5 18.5 54.11 18.5 52.41L18.5 40.08L15.41 40.08C13.72 40.08 12.33 38.69 12.33 37C12.33 35.3 13.72 33.91 15.41 33.91L27.75 33.91C29.44 33.91 30.83 35.3 30.83 37ZM61.66 37C61.66 38.69 60.27 40.08 58.58 40.08L40.08 40.08C38.38 40.08 37 38.69 37 37C37 35.3 38.38 33.91 40.08 33.91L58.58 33.91C60.27 33.91 61.66 35.3 61.66 37ZM61.66 49.33C61.66 51.02 60.27 52.41 58.58 52.41L40.08 52.41C38.38 52.41 37 51.02 37 49.33C37 47.63 38.38 46.25 40.08 46.25L58.58 46.25C60.27 46.25 61.66 47.63 61.66 49.33Z" fill="#FFFFFF" fill-opacity="1.000000" fill-rule="nonzero"/>
	</g>
</svg>
