<svg width="74.000000" height="74.000000" viewBox="0 0 74 74" fill="none" xmlns="http://www.w3.org/2000/svg" xmlns:xlink="http://www.w3.org/1999/xlink">
	<desc>
			Created with Pixso.
	</desc>
	<defs>
		<clipPath id="clip13_2721">
			<rect id="Property 1=portfolio" rx="0.000000" width="73.000000" height="73.000000" transform="translate(0.500000 0.500000)" fill="white" fill-opacity="0"/>
		</clipPath>
	</defs>
	<rect id="Property 1=portfolio" rx="0.000000" width="73.000000" height="73.000000" transform="translate(0.500000 0.500000)" fill="#FFFFFF" fill-opacity="0"/>
	<g clip-path="url(#clip13_2721)">
		<path id="Vector" d="M58.58 0L40.08 0C35.99 0 32.07 1.63 29.18 4.52C26.29 7.41 24.67 11.33 24.66 15.41L24.66 15.72C21.18 16.44 18.06 18.33 15.81 21.08C13.56 23.83 12.33 27.28 12.33 30.83L12.33 31.14C8.85 31.85 5.72 33.75 3.47 36.5C1.23 39.25 0 42.69 0 46.25L0 58.58C0 62.66 1.63 66.58 4.52 69.47C7.41 72.36 11.32 73.99 15.41 74L33.91 74C38 73.99 41.92 72.36 44.81 69.47C47.7 66.58 49.32 62.66 49.33 58.58L49.33 58.27C52.81 57.55 55.93 55.66 58.18 52.91C60.43 50.16 61.66 46.71 61.66 43.16L61.66 42.85C65.14 42.14 68.27 40.25 70.51 37.49C72.76 34.74 73.99 31.3 74 27.75L74 15.41C73.99 11.33 72.36 7.41 69.47 4.52C66.58 1.63 62.67 0 58.58 0ZM6.16 46.25C6.16 43.79 7.14 41.44 8.87 39.7C10.61 37.97 12.96 37 15.41 37L33.91 37C35.59 37 37.23 37.46 38.66 38.33C40.1 39.2 41.27 40.44 42.05 41.93L31.39 52.61L29.93 51.13C28.84 50.03 27.37 49.38 25.82 49.32C24.27 49.25 22.76 49.78 21.58 50.79L7.33 63C6.57 61.65 6.17 60.13 6.16 58.58L6.16 46.25ZM43.16 58.58C43.16 61.03 42.19 63.38 40.45 65.12C38.72 66.85 36.37 67.83 33.91 67.83L15.41 67.83C14.23 67.83 13.06 67.59 11.96 67.15L25.55 55.5L27.02 56.98C28.17 58.13 29.74 58.78 31.38 58.78C33.01 58.78 34.58 58.13 35.74 56.98L43.16 49.54L43.16 58.58ZM55.5 43.16C55.49 45.07 54.89 46.92 53.79 48.48C52.68 50.03 51.13 51.21 49.33 51.84L49.33 46.25C49.32 42.16 47.7 38.24 44.81 35.35C41.92 32.46 38 30.83 33.91 30.83L18.5 30.83C18.5 28.38 19.47 26.02 21.2 24.29C22.94 22.55 25.29 21.58 27.75 21.58L46.25 21.58C48.7 21.58 51.05 22.55 52.79 24.29C54.52 26.02 55.5 28.38 55.5 30.83L55.5 43.16ZM67.83 27.75C67.82 29.65 67.22 31.51 66.12 33.06C65.02 34.62 63.46 35.79 61.66 36.43L61.66 30.83C61.66 26.74 60.03 22.82 57.14 19.93C54.25 17.04 50.33 15.42 46.25 15.41L30.83 15.41C30.83 12.96 31.8 10.61 33.54 8.87C35.27 7.14 37.62 6.16 40.08 6.16L58.58 6.16C61.03 6.16 63.38 7.14 65.12 8.87C66.85 10.61 67.83 12.96 67.83 15.41L67.83 27.75ZM12.33 46.25C12.33 45.64 12.51 45.04 12.85 44.53C13.19 44.02 13.67 43.63 14.23 43.4C14.8 43.16 15.41 43.1 16.01 43.22C16.61 43.34 17.16 43.63 17.59 44.07C18.02 44.5 18.32 45.05 18.44 45.64C18.55 46.24 18.49 46.86 18.26 47.42C18.03 47.99 17.63 48.47 17.12 48.81C16.62 49.15 16.02 49.33 15.41 49.33C14.59 49.33 13.81 49 13.23 48.42C12.65 47.85 12.33 47.06 12.33 46.25Z" fill="#FFFFFF" fill-opacity="1.000000" fill-rule="nonzero"/>
	</g>
</svg>
