<svg width="61.666504" height="74.000000" viewBox="0 0 61.6665 74" fill="none" xmlns="http://www.w3.org/2000/svg" xmlns:xlink="http://www.w3.org/1999/xlink">
	<desc>
			Created with Pixso.
	</desc>
	<defs/>
	<path id="Vector" d="M55.34 17.07L44.6 6.32C42.6 4.31 40.22 2.71 37.6 1.63C34.98 0.54 32.17 -0.01 29.33 0L15.41 0C11.32 0 7.41 1.63 4.52 4.52C1.63 7.41 0 11.33 0 15.41L0 58.58C0 62.66 1.63 66.58 4.52 69.47C7.41 72.36 11.32 73.99 15.41 74L46.25 74C50.33 73.99 54.25 72.36 57.14 69.47C60.03 66.58 61.66 62.66 61.66 58.58L61.66 32.32C61.67 29.49 61.11 26.68 60.03 24.06C58.94 21.44 57.35 19.06 55.34 17.07ZM50.98 21.42C51.92 22.39 52.73 23.48 53.39 24.66L40.08 24.66C39.26 24.66 38.48 24.34 37.9 23.76C37.32 23.18 37 22.4 37 21.58L37 8.27C38.18 8.93 39.27 9.74 40.24 10.68L50.98 21.42ZM55.5 58.58C55.5 61.03 54.52 63.38 52.79 65.12C51.05 66.85 48.7 67.83 46.25 67.83L15.41 67.83C12.96 67.83 10.61 66.85 8.87 65.12C7.14 63.38 6.16 61.03 6.16 58.58L6.16 15.41C6.16 12.96 7.14 10.61 8.87 8.87C10.61 7.14 12.96 6.16 15.41 6.16L29.33 6.16C29.84 6.16 30.33 6.26 30.83 6.31L30.83 21.58C30.83 24.03 31.8 26.38 33.54 28.12C35.27 29.85 37.62 30.83 40.08 30.83L55.35 30.83C55.4 31.33 55.5 31.82 55.5 32.32L55.5 58.58Z" fill="#FFFFFF" fill-opacity="1.000000" fill-rule="nonzero"/>
</svg>
