<svg width="73.000977" height="73.000000" viewBox="0 0 73.001 73" fill="none" xmlns="http://www.w3.org/2000/svg" xmlns:xlink="http://www.w3.org/1999/xlink">
	<desc>
			Created with Pixso.
	</desc>
	<defs/>
	<path id="Vector" d="M60.83 0L33.45 0C31.77 0 30.41 1.36 30.41 3.04C30.41 4.72 31.77 6.08 33.45 6.08L60.83 6.08C61.37 6.08 61.9 6.15 62.4 6.29L0.89 67.8C-0.3 68.99 -0.3 70.91 0.89 72.1C1.48 72.7 2.26 73 3.04 73C3.82 73 4.59 72.7 5.19 72.1L66.71 10.59C66.84 11.09 66.91 11.62 66.91 12.16L66.91 39.54C66.91 41.22 68.27 42.58 69.95 42.58C71.64 42.58 73 41.22 73 39.54L73 12.16C73 5.45 67.54 0 60.83 0Z" fill="#FFFFFF" fill-opacity="1.000000" fill-rule="nonzero"/>
</svg>
