<svg width="74.000000" height="74.000000" viewBox="0 0 74 74" fill="none" xmlns="http://www.w3.org/2000/svg" xmlns:xlink="http://www.w3.org/1999/xlink">
	<desc>
			Created with Pixso.
	</desc>
	<defs>
		<clipPath id="clip13_2706">
			<rect id="Property 1=shopping-cart-add 1" rx="0.000000" width="73.000000" height="73.000000" transform="translate(0.500000 0.500000)" fill="white" fill-opacity="0"/>
		</clipPath>
	</defs>
	<rect id="Property 1=shopping-cart-add 1" rx="0.000000" width="73.000000" height="73.000000" transform="translate(0.500000 0.500000)" fill="#FFFFFF" fill-opacity="0"/>
	<g clip-path="url(#clip13_2706)">
		<path id="Vector" d="M27.75 67.83C27.75 71.24 24.98 74 21.58 74C18.17 74 15.41 71.24 15.41 67.83C15.41 64.42 18.17 61.66 21.58 61.66C24.98 61.66 27.75 64.42 27.75 67.83Z" fill="#FFFFFF" fill-opacity="1.000000" fill-rule="evenodd"/>
		<path id="Vector" d="M58.58 67.83C58.58 71.24 55.82 74 52.41 74C49.01 74 46.25 71.24 46.25 67.83C46.25 64.42 49.01 61.66 52.41 61.66C55.82 61.66 58.58 64.42 58.58 67.83Z" fill="#FFFFFF" fill-opacity="1.000000" fill-rule="evenodd"/>
		<path id="Vector" d="M70.91 9.25L64.75 9.25L64.75 3.08C64.75 2.26 64.42 1.48 63.84 0.9C63.26 0.32 62.48 0 61.66 0C60.84 0 60.06 0.32 59.48 0.9C58.9 1.48 58.58 2.26 58.58 3.08L58.58 9.25L52.41 9.25C51.59 9.25 50.81 9.57 50.23 10.15C49.65 10.73 49.33 11.51 49.33 12.33C49.33 13.15 49.65 13.93 50.23 14.51C50.81 15.09 51.59 15.41 52.41 15.41L58.58 15.41L58.58 21.58C58.58 22.4 58.9 23.18 59.48 23.76C60.06 24.34 60.84 24.66 61.66 24.66C62.48 24.66 63.26 24.34 63.84 23.76C64.42 23.18 64.75 22.4 64.75 21.58L64.75 15.41L70.91 15.41C71.73 15.41 72.51 15.09 73.09 14.51C73.67 13.93 74 13.15 74 12.33C74 11.51 73.67 10.73 73.09 10.15C72.51 9.57 71.73 9.25 70.91 9.25Z" fill="#FFFFFF" fill-opacity="1.000000" fill-rule="nonzero"/>
		<path id="Vector" d="M67.12 29.98C66.72 29.91 66.31 29.91 65.92 30C65.52 30.08 65.14 30.25 64.81 30.48C64.48 30.71 64.19 31 63.98 31.35C63.76 31.69 63.61 32.07 63.54 32.47C63.15 34.6 62.03 36.53 60.37 37.92C58.71 39.32 56.61 40.08 54.44 40.08L16.7 40.08L13.8 15.41L40.08 15.41C40.9 15.41 41.68 15.09 42.26 14.51C42.84 13.93 43.16 13.15 43.16 12.33C43.16 11.51 42.84 10.73 42.26 10.15C41.68 9.57 40.9 9.25 40.08 9.25L13.07 9.25L12.95 8.16C12.68 5.91 11.6 3.84 9.91 2.33C8.21 0.83 6.03 0 3.76 0L3.08 0C2.26 0 1.48 0.32 0.9 0.9C0.32 1.48 0 2.26 0 3.08C0 3.9 0.32 4.68 0.9 5.26C1.48 5.84 2.26 6.16 3.08 6.16L3.76 6.16C4.52 6.16 5.25 6.44 5.81 6.94C6.38 7.44 6.74 8.13 6.82 8.88L11.07 44.96C11.51 48.71 13.31 52.17 16.13 54.68C18.96 57.19 22.6 58.58 26.38 58.58L58.58 58.58C59.4 58.58 60.18 58.25 60.76 57.67C61.34 57.1 61.66 56.31 61.66 55.5C61.66 54.68 61.34 53.89 60.76 53.32C60.18 52.74 59.4 52.41 58.58 52.41L26.38 52.41C24.47 52.41 22.6 51.82 21.04 50.72C19.48 49.61 18.29 48.05 17.66 46.25L54.44 46.25C58.05 46.25 61.55 44.98 64.32 42.66C67.1 40.34 68.97 37.12 69.61 33.57C69.68 33.17 69.68 32.76 69.59 32.36C69.5 31.97 69.34 31.59 69.11 31.26C68.88 30.93 68.58 30.64 68.24 30.42C67.9 30.2 67.52 30.06 67.12 29.98Z" fill="#FFFFFF" fill-opacity="1.000000" fill-rule="nonzero"/>
	</g>
</svg>
