<svg width="74.000000" height="74.000000" viewBox="0 0 74 74" fill="none" xmlns="http://www.w3.org/2000/svg" xmlns:xlink="http://www.w3.org/1999/xlink">
	<desc>
			Created with Pixso.
	</desc>
	<defs>
		<clipPath id="clip13_2714">
			<rect id="Property 1=crm" rx="0.000000" width="73.000000" height="73.000000" transform="translate(0.500000 0.500000)" fill="white" fill-opacity="0"/>
		</clipPath>
	</defs>
	<rect id="Property 1=crm" rx="0.000000" width="73.000000" height="73.000000" transform="translate(0.500000 0.500000)" fill="#FFFFFF" fill-opacity="0"/>
	<g clip-path="url(#clip13_2714)">
		<path id="Vector" d="M21.76 15.29C24.34 15.29 26.68 16.36 28.35 18.07C24.27 20.85 21.58 25.53 21.58 30.83C21.58 31.84 21.69 32.83 21.87 33.79C21.83 33.79 21.8 33.8 21.76 33.8C16.65 33.8 12.51 29.66 12.51 24.55C12.51 19.44 16.65 15.29 21.76 15.29ZM52.41 15.41C49.82 15.41 47.48 16.49 45.8 18.21C49.79 21 52.41 25.6 52.41 30.83C52.41 31.87 52.3 32.89 52.1 33.88C52.21 33.88 52.31 33.91 52.41 33.91C57.52 33.91 61.66 29.77 61.66 24.66C61.66 19.55 57.52 15.41 52.41 15.41ZM37 40.08C42.1 40.08 46.25 35.94 46.25 30.83C46.25 25.72 42.1 21.58 37 21.58C31.89 21.58 27.75 25.72 27.75 30.83C27.75 35.94 31.89 40.08 37 40.08ZM37 46.25C31.59 46.25 26.71 49.52 24.86 54.4C24.26 56 25.06 57.78 26.65 58.38C28.24 58.98 30.03 58.18 30.63 56.59C31.58 54.09 34.14 52.41 37 52.41C39.86 52.41 42.42 54.09 43.37 56.59C43.83 57.82 45.01 58.58 46.25 58.58C46.61 58.58 46.98 58.52 47.34 58.38C48.93 57.78 49.73 56 49.13 54.41C47.28 49.53 42.41 46.25 37 46.25L37 46.25ZM48.4 40.69C46.78 41.2 45.87 42.93 46.39 44.55C46.9 46.17 48.63 47.08 50.25 46.57C50.94 46.35 51.67 46.25 52.41 46.25C55.27 46.25 57.83 47.92 58.78 50.42C59.24 51.65 60.42 52.41 61.66 52.41C62.03 52.41 62.4 52.35 62.75 52.21C64.34 51.61 65.15 49.83 64.54 48.24C62.69 43.36 57.82 40.08 52.41 40.08C51.04 40.08 49.69 40.28 48.4 40.69ZM21.58 40.08C16.17 40.08 11.3 43.36 9.45 48.24C8.84 49.83 9.64 51.61 11.24 52.21C11.6 52.35 11.96 52.41 12.33 52.41C13.57 52.41 14.75 51.65 15.21 50.42C16.16 47.92 18.72 46.25 21.58 46.25C22.32 46.25 23.05 46.35 23.74 46.57C25.36 47.08 27.09 46.17 27.6 44.55C28.12 42.93 27.21 41.2 25.59 40.69C24.3 40.28 22.95 40.08 21.58 40.08ZM21.58 67.83L15.41 67.83C10.31 67.83 6.16 63.68 6.16 58.58L6.16 52.41C6.16 50.71 4.78 49.33 3.08 49.33C1.38 49.33 0 50.71 0 52.41L0 58.58C0 67.08 6.91 74 15.41 74L21.58 74C23.28 74 24.66 72.62 24.66 70.91C24.66 69.21 23.28 67.83 21.58 67.83ZM70.91 49.33C69.21 49.33 67.83 50.71 67.83 52.41L67.83 58.58C67.83 63.68 63.68 67.83 58.58 67.83L52.41 67.83C50.71 67.83 49.33 69.21 49.33 70.91C49.33 72.62 50.71 74 52.41 74L58.58 74C67.08 74 74 67.08 74 58.58L74 52.41C74 50.71 72.61 49.33 70.91 49.33ZM58.58 0L52.41 0C50.71 0 49.33 1.37 49.33 3.08C49.33 4.78 50.71 6.16 52.41 6.16L58.58 6.16C63.68 6.16 67.83 10.31 67.83 15.41L67.83 21.58C67.83 23.28 69.21 24.66 70.91 24.66C72.61 24.66 74 23.28 74 21.58L74 15.41C74 6.91 67.08 0 58.58 0ZM3.08 24.66C4.78 24.66 6.16 23.28 6.16 21.58L6.16 15.41C6.16 10.31 10.31 6.16 15.41 6.16L21.58 6.16C23.28 6.16 24.66 4.78 24.66 3.08C24.66 1.37 23.28 0 21.58 0L15.41 0C6.91 0 0 6.91 0 15.41L0 21.58C0 23.28 1.38 24.66 3.08 24.66Z" fill="#FFFFFF" fill-opacity="1.000000" fill-rule="nonzero"/>
	</g>
</svg>
