<svg width="74.000000" height="74.000000" viewBox="0 0 74 74" fill="none" xmlns="http://www.w3.org/2000/svg" xmlns:xlink="http://www.w3.org/1999/xlink">
	<desc>
			Created with Pixso.
	</desc>
	<defs>
		<clipPath id="clip13_2743">
			<rect id="Property 1=data-processing 1" rx="0.000000" width="73.000000" height="73.000000" transform="translate(0.500000 0.500000)" fill="white" fill-opacity="0"/>
		</clipPath>
	</defs>
	<rect id="Property 1=data-processing 1" rx="0.000000" width="73.000000" height="73.000000" transform="translate(0.500000 0.500000)" fill="#FFFFFF" fill-opacity="0"/>
	<g clip-path="url(#clip13_2743)">
		<path id="Vector" d="M71.52 58.99L68.51 57.26C69.02 55.73 69.37 54.12 69.37 52.41C69.37 50.71 69.03 49.1 68.51 47.57L71.52 45.83C72.99 44.98 73.5 43.09 72.64 41.62C71.79 40.14 69.9 39.64 68.43 40.49L65.43 42.22C63.26 39.78 60.36 37.99 57.04 37.31L57.04 33.91C57.04 32.21 55.66 30.83 53.95 30.83C52.25 30.83 50.87 32.21 50.87 33.91L50.87 37.31C47.54 37.99 44.65 39.78 42.47 42.22L39.47 40.49C37.99 39.64 36.11 40.15 35.26 41.62C34.41 43.1 34.92 44.98 36.39 45.83L39.39 47.57C38.88 49.1 38.54 50.71 38.54 52.41C38.54 54.12 38.88 55.73 39.39 57.26L36.39 58.99C34.92 59.84 34.41 61.73 35.26 63.2C36.12 64.69 38.02 65.17 39.47 64.33L42.47 62.6C44.65 65.05 47.54 66.84 50.87 67.51L50.87 70.91C50.87 72.61 52.25 73.99 53.95 73.99C55.66 73.99 57.04 72.61 57.04 70.91L57.04 67.51C60.36 66.83 63.26 65.04 65.43 62.6L68.43 64.33C69.88 65.17 71.79 64.69 72.64 63.2C73.5 61.73 72.99 59.84 71.52 58.99ZM53.95 61.66C48.85 61.66 44.7 57.51 44.7 52.41C44.7 47.31 48.85 43.16 53.95 43.16C59.05 43.16 63.2 47.31 63.2 52.41C63.2 57.51 59.05 61.66 53.95 61.66ZM14.67 66.41C9.15 64.91 6.16 62.5 6.16 61L6.16 38.41C10.56 41.14 17 42.9 24.57 43.14L24.66 43.14C26.32 43.14 27.69 41.82 27.74 40.15C27.79 38.44 26.46 37.02 24.75 36.97C13.23 36.62 6.16 32.26 6.16 29.29L6.16 22.99C10.89 25.93 17.98 27.75 26.2 27.75C34.42 27.75 41.51 25.93 46.24 22.99L46.24 23.12C46.24 24.83 47.62 26.2 49.33 26.2C51.03 26.2 52.41 24.83 52.41 23.12L52.41 13.87C52.41 5.96 41.15 0 26.2 0C11.26 0 0 5.96 0 13.87L0 61C0 65.97 4.76 70.11 13.07 72.36C14.66 72.81 16.41 71.85 16.85 70.19C17.29 68.55 16.32 66.85 14.67 66.41ZM26.2 6.16C38.44 6.16 46.25 10.73 46.25 13.87C46.25 17.01 38.44 21.58 26.2 21.58C13.97 21.58 6.16 17.01 6.16 13.87C6.16 10.73 13.97 6.16 26.2 6.16ZM31.71 55.41C32.92 56.62 32.92 58.57 31.71 59.77C30.5 60.98 28.56 60.98 27.35 59.77L26.34 58.76C26.65 63.3 27.52 66.41 29.23 69.37C30.08 70.84 29.58 72.73 28.1 73.58C26.66 74.43 24.75 73.94 23.89 72.46C21.34 68.04 20.42 63.53 20.14 58.42L18.71 59.85C17.51 61.06 15.56 61.06 14.35 59.85C13.15 58.65 13.15 56.7 14.35 55.5L18.72 51.14C21.04 48.81 25.11 48.8 27.44 51.14L31.71 55.41Z" fill="#FFFFFF" fill-opacity="1.000000" fill-rule="nonzero"/>
	</g>
</svg>
